<svg aria-hidden="true" style="position: absolute; width: 0; height: 0; overflow: hidden;" version="1.1" xmlns="http://www.w3.org/2000/svg" xmlns:xlink="http://www.w3.org/1999/xlink">
<defs>
<symbol id="yoga-logo" viewBox="0 0 32 32">
<path fill="currentColor" style="fill: var(--color1, currentColor)" d="M7.695 21.892c-0.444-0.159-0.875-0.357-1.301-0.576s-0.844-0.463-1.253-0.732c-0.818-0.538-1.601-1.177-2.312-1.948-0.708-0.771-1.343-1.683-1.814-2.742-0.118-0.264-0.226-0.537-0.321-0.818-0.050-0.14-0.091-0.283-0.135-0.426-0.040-0.144-0.081-0.288-0.115-0.435-0.144-0.586-0.231-1.195-0.271-1.809v-1.072l0.919-0.061 0.034-0.001 0.062 0.001c0.040 0.001 0.077 0.003 0.114 0.005 0.074 0.005 0.144 0.012 0.214 0.020 0.139 0.017 0.275 0.041 0.408 0.068 0.266 0.056 0.524 0.13 0.775 0.22 0.502 0.18 0.979 0.421 1.427 0.709 0.897 0.577 1.671 1.342 2.319 2.202 0.648 0.862 1.173 1.816 1.603 2.807 0.431 0.992 0.767 2.024 1.038 3.070l-0.082 0.038c-0.412-0.975-0.881-1.911-1.422-2.77-0.54-0.859-1.152-1.641-1.835-2.291-0.682-0.649-1.437-1.161-2.225-1.482-0.394-0.16-0.796-0.273-1.195-0.333-0.199-0.030-0.398-0.046-0.592-0.047-0.096-0.001-0.192 0.003-0.284 0.010-0.046 0.004-0.090 0.009-0.132 0.014-0.021 0.003-0.041 0.007-0.059 0.010-0.008 0.002-0.018 0.004-0.024 0.006-0.004 0.001-0.007 0.002-0.009 0.003s-0.003 0.001-0.002 0.001c0.001 0-0.003 0.001 0.008 0l0.87-1.129c-0.075 0.928 0.009 1.878 0.266 2.799 0.255 0.921 0.677 1.807 1.21 2.617 0.534 0.811 1.175 1.55 1.877 2.211 0.351 0.331 0.719 0.643 1.099 0.934 0.38 0.291 0.774 0.567 1.18 0.805l-0.038 0.12z"></path>
<path fill="currentColor" style="fill: var(--color1, currentColor)" d="M24.15 21.773c0.407-0.238 0.8-0.514 1.18-0.805 0.38-0.292 0.748-0.604 1.099-0.934 0.702-0.661 1.343-1.4 1.877-2.211 0.533-0.811 0.955-1.696 1.21-2.617 0.257-0.921 0.341-1.871 0.266-2.799l0.87 1.129c0.011 0.001 0.007 0 0.008 0s-0.001-0.001-0.002-0.001c-0.002-0.001-0.005-0.002-0.009-0.003-0.007-0.002-0.016-0.004-0.025-0.006-0.018-0.003-0.038-0.007-0.059-0.010-0.042-0.006-0.087-0.011-0.132-0.014-0.091-0.007-0.187-0.010-0.284-0.010-0.193 0.001-0.392 0.018-0.592 0.047-0.399 0.060-0.801 0.173-1.195 0.333-0.789 0.321-1.542 0.834-2.225 1.482-0.683 0.65-1.296 1.432-1.835 2.291-0.541 0.859-1.011 1.795-1.422 2.77l-0.082-0.038c0.271-1.047 0.607-2.078 1.038-3.070s0.955-1.946 1.603-2.807c0.648-0.859 1.422-1.625 2.319-2.202 0.448-0.288 0.925-0.529 1.427-0.709 0.251-0.089 0.509-0.165 0.775-0.22 0.133-0.028 0.268-0.051 0.408-0.068 0.070-0.009 0.141-0.016 0.214-0.020 0.037-0.003 0.075-0.005 0.114-0.005l0.062-0.001 0.035 0.001 0.020 0.001 0.9 0.060v1.072c-0.041 0.613-0.127 1.222-0.271 1.809-0.033 0.147-0.076 0.291-0.115 0.435-0.044 0.143-0.085 0.286-0.135 0.426-0.094 0.281-0.203 0.553-0.321 0.818-0.471 1.060-1.106 1.971-1.814 2.742-0.71 0.771-1.493 1.41-2.312 1.948-0.409 0.269-0.827 0.513-1.253 0.732s-0.857 0.416-1.301 0.576l-0.039-0.12z"></path>
<path fill="currentColor" style="fill: var(--color1, currentColor)" d="M7.637 27.608c0 0 3.483-0.668 6.128 2.397 0 0-8.323 4.752-13.765-2.436 0 0 1.461-3.521 7.092-3.929 5.696-0.413 8.422 2.671 10.828 4.018 1.555 0.871 5.812 4.085 11.814 0 0 0-2.484-2.902-7.965-1.763 0 0 0.778 0.983 2.56 1.597 0 0-3.451 0.904-6.163-2.355 0 0 3.508-2.467 7.974-1.329s5.859 3.683 5.859 3.683-1.451 3.594-6.826 4.040c-4.14 0.344-6.458-1.027-7.306-1.675-0.418-0.32-0.848-0.618-1.292-0.887-1.576-0.959-4.42-2.596-5.483-2.885-0.97-0.264-4.494-1.82-8.789 1.434 0 0 1.906 2.752 8.078 1.814 0 0-1.593-1.474-2.745-1.725z"></path>
<path fill="currentColor" style="fill: var(--color1, currentColor)" d="M19.38 5.268c-1.783-2.389-3.395-5.268-3.395-5.268l-3.982 6.128c0 0-3.072 4.855-1.507 10.715s4.185 7.432 5.49 7.467c1.308 0.035 4.836-3.215 5.575-7.746s-0.398-8.907-2.181-11.295zM19.238 14.077c-0.431 3.365-2.506 5.977-3.243 5.753-0.65-0.197-2.213-0.87-3.123-5.222s0.807-8.281 0.807-8.281l2.316-4.552c0 0 0.937 2.139 1.974 3.913s1.698 5.024 1.268 8.39z"></path>
<path fill="currentColor" style="fill: var(--color1, currentColor)" d="M15.979 16.692c0.978 0 1.771-0.933 1.771-2.085s-0.793-2.085-1.771-2.085-1.771 0.933-1.771 2.085c0 1.151 0.793 2.085 1.771 2.085z"></path>
</symbol>
<symbol id="burger-menu" viewBox="0 0 32 32">
<path fill="currentColor" style="fill: var(--color1, currentColor)" d="M5.333 23.027v-1.333h21.333v1.333h-21.333zM5.333 16.667v-1.333h21.333v1.333h-21.333zM5.333 10.307v-1.333h21.333v1.333h-21.333z"></path>
</symbol>
<symbol id="close" viewBox="0 0 20 20">
<path fill="currentColor" style="fill: var(--color1, currentColor)" d="M10 8.586l-7.071-7.071-1.414 1.414 7.071 7.071-7.071 7.071 1.414 1.414 7.071-7.071 7.071 7.071 1.414-1.414-7.071-7.071 7.071-7.071-1.414-1.414-7.071 7.071z"></path>
</symbol>
<symbol id="phone" viewBox="0 0 32 32">
<path fill="currentColor" style="fill: var(--color1, currentColor)" d="M15.331 19.76c-0.026-0.018-3.034-5.075-3.044-5.14-0.622-1.359-1.124-2.749-0.078-3.366l-4.341-7.32c-1.125 0.841-4.307 5.405 1.649 15.748 6.274 10.9 12.245 10.447 13.442 9.709l-4.23-7.145c-1 0.588-1.842-0.381-3.398-2.486zM25.862 26.617l0.001-0.006c0 0-3.303-5.566-3.305-5.568-0.262-0.441-0.825-0.58-1.264-0.324l-2.024 1.197 4.242 7.166c0 0 2.024-1.191 2.023-1.195h0.004c0.465-0.276 0.572-0.846 0.323-1.27zM14.786 9.736v-0.004c0.465-0.275 0.574-0.845 0.325-1.265l0.002-0.006c0 0-3.398-5.729-3.4-5.73-0.261-0.443-0.826-0.58-1.263-0.324l-2.024 1.197 4.336 7.324c0 0 2.023-1.189 2.024-1.192z"></path>
</symbol>
<symbol id="mail" viewBox="0 0 32 32">
<path fill="currentColor" style="fill: var(--color1, currentColor)" d="M16.015 18.861l-4.072-3.343-8.862 10.463h25.876l-8.863-10.567-4.079 3.447zM29.926 6.019h-27.815l13.908 11.698 13.907-11.698zM20.705 14.887l9.291 11.084v-18.952l-9.291 7.868zM2.004 7.019v18.952l9.291-11.084-9.291-7.868z"></path>
</symbol>
<symbol id="chevron-down" viewBox="0 0 24 24">
<path fill="currentColor" style="fill: var(--color1, currentColor)" d="M5.293 9.707l6 6c0.391 0.391 1.024 0.391 1.414 0l6-6c0.391-0.391 0.391-1.024 0-1.414s-1.024-0.391-1.414 0l-5.293 5.293-5.293-5.293c-0.391-0.391-1.024-0.391-1.414 0s-0.391 1.024 0 1.414z"></path>
</symbol>
</defs>
</svg>
