<svg xmlns="http://www.w3.org/2000/svg" id="b" viewBox="0 0 93.96 133.94"><g id="c"><g id="d"><g><path d="m86.85,12.6c2.98-4.41,1.83-8.67-3.01-11.01-6.09-2.94-11.87-1.63-16.92,2.35-6.84,5.38-8.27,12.84-6.76,20.95,1.54,8.25,5.3,15.7,8.96,23.17,5.42,11.05,11.45,21.83,15.09,33.67,2.66,8.65,3.88,17.38.87,26.18-5.58,16.29-21.57,24.76-39.06,21.91-21.08-3.43-38.12-23.18-36.51-45.33.7-9.66,4.37-17.93,12.53-23.7,11.56-8.17,26.57-6.43,34.4,3.43.13.16.42.19,1.07.45-2-3.28-4.35-5.53-7.22-7.21-10.2-5.96-20.67-5.06-30.66.01C6.43,64.19.21,75.76,0,90.23c-.24,17.05,7.04,30.27,22.41,38.25,10.52,5.46,21.87,6.51,33.54,4.55,24.18-4.05,37.16-22.77,37.97-43.49.4-10.34-2.44-20.07-7.21-29.11-4.95-9.37-10.54-18.4-15.8-27.6-3.03-5.29-6.04-10.59-6.95-16.77-.92-6.29,2.96-12.13,8.75-13.08,6.4-1.05,13.06,3.4,14.13,9.62Z" 
style="fill:#9db5d2;"></path><path d="m86.85,12.6c-1.07-6.22-7.74-10.67-14.13-9.62-5.8.95-9.67,6.78-8.75,13.08.9,6.18,3.92,11.48,6.95,16.77,5.27,9.2,10.86,18.23,15.8,27.6,4.77,9.03,7.61,18.76,7.21,29.11-.81,20.72-13.79,39.44-37.97,43.49-11.67,1.96-23.02.91-33.54-4.55C7.05,120.5-.24,107.28,0,90.23c.2-14.47,6.42-26.04,19.61-32.74,9.99-5.07,20.46-5.97,30.66-.01,2.86,1.67,5.22,3.93,7.22,7.21-.65-.26-.94-.29-1.07-.45-7.83-9.86-22.85-11.59-34.4-3.43-8.16,5.77-11.83,14.04-12.53,23.7-1.61,22.15,15.44,41.91,36.51,45.33,17.49,2.84,33.48-5.62,39.06-21.91,3.02-8.81,1.79-17.54-.87-26.18-3.64-11.84-9.67-22.62-15.09-33.67-3.66-7.46-7.42-14.92-8.96-23.17-1.52-8.11-.08-15.57,6.76-20.95C71.97-.03,77.75-1.34,83.84,1.6c4.85,2.34,5.99,6.6,3.01,11.01Z" style="fill:#9db5d2;"></path></g></g></g></svg>